<svg width="16" height="16" viewBox="0 0 16 16" fill="#4493f8" xmlns="http://www.w3.org/2000/svg">
<path d="M8 2C9.981 2 11.671 2.992 12.933 4.078C14.203 5.169 15.12 6.423 15.57 7.101C15.7476 7.36719 15.8423 7.68001 15.8423 8C15.8423 8.31999 15.7476 8.63281 15.57 8.899C15.12 9.577 14.203 10.831 12.933 11.922C11.67 13.008 9.981 14 8 14C6.019 14 4.329 13.008 3.067 11.922C1.797 10.83 0.880005 9.576 0.430005 8.898C0.252432 8.63181 0.157669 8.31899 0.157669 7.999C0.157669 7.67901 0.252432 7.36619 0.430005 7.1C0.880005 6.423 1.797 5.169 3.067 4.078C4.33 2.992 6.019 2 8 2ZM1.679 7.932C1.66524 7.95201 1.65788 7.97572 1.65788 8C1.65788 8.02428 1.66524 8.04799 1.679 8.068C2.09 8.69 2.92 9.818 4.045 10.785C5.176 11.758 6.527 12.5 8 12.5C9.473 12.5 10.825 11.758 11.955 10.785C13.079 9.818 13.909 8.689 14.321 8.068C14.3348 8.04799 14.3421 8.02428 14.3421 8C14.3421 7.97572 14.3348 7.95201 14.321 7.932C13.909 7.311 13.079 6.182 11.955 5.215C10.824 4.242 9.473 3.5 8 3.5C6.527 3.5 5.175 4.242 4.045 5.215C2.921 6.182 2.091 7.311 1.679 7.932ZM8 10C7.73367 10.006 7.46881 9.95877 7.22098 9.86103C6.97315 9.76328 6.74735 9.61701 6.55683 9.4308C6.36631 9.24458 6.21492 9.02218 6.11153 8.77666C6.00815 8.53113 5.95486 8.26742 5.95479 8.00101C5.95472 7.7346 6.00788 7.47087 6.11114 7.22529C6.21441 6.97971 6.36569 6.75723 6.55612 6.57093C6.74654 6.38462 6.97227 6.23823 7.22005 6.14036C7.46783 6.04249 7.73266 5.99511 7.999 6.001C8.52157 6.01256 9.01884 6.22822 9.38437 6.60184C9.74991 6.97545 9.95466 7.47732 9.95479 8.00001C9.95492 8.5227 9.75042 9.02467 9.38507 9.39847C9.01973 9.77227 8.52256 9.98818 8 10Z" fill="#4493f8"/>
</svg>
