<svg width="129" height="85" viewBox="0 0 129 85" fill="#FFFFFF" xmlns="http://www.w3.org/2000/svg">
<path d="M91.8004 2.01922L127.174 38.0082C128.343 39.199 129 40.8132 129 42.4962C129 44.1792 128.343 45.7934 127.174 46.9843L91.8004 82.9732C91.0374 83.8092 90.0669 84.4204 88.9911 84.7423C87.9153 85.0642 86.7741 85.0849 85.6877 84.8023C84.6013 84.5197 83.61 83.9442 82.8181 83.1365C82.0262 82.3288 81.4632 81.3187 81.1882 80.2127C80.9101 79.1086 80.9295 77.9488 81.2444 76.855C81.5593 75.7613 82.158 74.774 82.9777 73.9972L113.94 42.4962L82.9777 10.9953C82.156 10.219 81.5553 9.23162 81.2389 8.13715C80.9225 7.04267 80.9021 5.88163 81.1799 4.77635C81.4576 3.67108 82.0233 2.66248 82.8172 1.85684C83.6112 1.0512 84.604 0.478335 85.6911 0.198602C86.7763 -0.0843701 87.9163 -0.0646305 88.9914 0.255748C90.0664 0.576126 91.0368 1.1853 91.8004 2.01922ZM37.1996 2.01922C38.3837 0.897984 39.9489 0.287412 41.5663 0.315837C43.1836 0.344262 44.7272 1.00947 45.8725 2.17164C47.0148 3.33687 47.6686 4.90725 47.6966 6.55273C47.7245 8.1982 47.1244 9.79062 46.0223 10.9953L15.0597 42.4962L46.0223 73.9972C46.844 74.7734 47.4447 75.7608 47.7611 76.8553C48.0775 77.9498 48.0979 79.1108 47.8201 80.2161C47.5424 81.3214 46.9767 82.33 46.1828 83.1356C45.3888 83.9413 44.396 84.5141 43.3089 84.7939C42.2237 85.0768 41.0837 85.0571 40.0086 84.7367C38.9336 84.4163 37.9632 83.8071 37.1996 82.9732L1.82563 46.9843C0.656621 45.7934 0 44.1792 0 42.4962C0 40.8132 0.656621 39.199 1.82563 38.0082L37.1996 2.01922Z" fill="#FFFFFF"/>
</svg>
