<svg width="16" height="16" viewBox="0 0 16 16" fill="#FFFFFF" xmlns="http://www.w3.org/2000/svg">
<path d="M4.42699 7.427L7.82299 10.823C7.84622 10.8463 7.8738 10.8648 7.90418 10.8774C7.93455 10.89 7.96711 10.8964 7.99999 10.8964C8.03288 10.8964 8.06544 10.89 8.09581 10.8774C8.12618 10.8648 8.15377 10.8463 8.17699 10.823L11.573 7.427C11.608 7.39204 11.6319 7.34745 11.6416 7.2989C11.6513 7.25034 11.6463 7.20001 11.6274 7.15427C11.6084 7.10853 11.5763 7.06945 11.5351 7.04199C11.4939 7.01453 11.4455 6.99991 11.396 7H4.60399C4.55448 6.99991 4.50606 7.01453 4.46487 7.04199C4.42367 7.06945 4.39156 7.10853 4.3726 7.15427C4.35364 7.20001 4.34869 7.25034 4.35837 7.2989C4.36806 7.34745 4.39194 7.39204 4.42699 7.427Z" fill="#848D97CDCDCD"/>
</svg>
