<svg width="16" height="16" viewBox="0 0 16 16" fill="none" xmlns="http://www.w3.org/2000/svg">
<path d="M6 2C6.306 2 6.582 2.187 6.696 2.471L10 10.731L11.304 7.471C11.3598 7.33205 11.4559 7.21296 11.58 7.12903C11.704 7.0451 11.8503 7.00017 12 7H15.25C15.4489 7 15.6397 7.07902 15.7803 7.21967C15.921 7.36032 16 7.55109 16 7.75C16 7.94891 15.921 8.13968 15.7803 8.28033C15.6397 8.42098 15.4489 8.5 15.25 8.5H12.508L10.696 13.028C10.6398 13.1666 10.5436 13.2852 10.4196 13.3687C10.2956 13.4523 10.1495 13.4969 10 13.4969C9.85049 13.4969 9.70439 13.4523 9.58039 13.3687C9.4564 13.2852 9.36016 13.1666 9.304 13.028L6 4.77L4.696 8.03C4.64013 8.16884 4.54399 8.2878 4.41995 8.37155C4.29592 8.45531 4.14967 8.50005 4 8.5H0.75C0.551088 8.5 0.360322 8.42098 0.21967 8.28033C0.0790176 8.13968 0 7.94891 0 7.75C0 7.55109 0.0790176 7.36032 0.21967 7.21967C0.360322 7.07902 0.551088 7 0.75 7H3.492L5.304 2.471C5.35983 2.33205 5.45593 2.21296 5.57995 2.12903C5.70397 2.0451 5.85025 2.00017 6 2Z" fill="#848D97"/>
</svg>
