<svg width="16" height="16" viewBox="0 0 16 16" fill="#238636" xmlns="http://www.w3.org/2000/svg">
<path d="M13.78 4.22C13.9205 4.36063 13.9993 4.55125 13.9993 4.75C13.9993 4.94875 13.9205 5.13937 13.78 5.28L6.53001 12.53C6.38938 12.6705 6.19876 12.7493 6.00001 12.7493C5.80125 12.7493 5.61063 12.6705 5.47001 12.53L2.22001 9.28C2.0876 9.13774 2.01549 8.94969 2.01885 8.75537C2.02221 8.56105 2.10076 8.3756 2.23801 8.238C2.37561 8.10076 2.56106 8.0222 2.75538 8.01884C2.94969 8.01549 3.13774 8.08759 3.28001 8.22L6.00001 10.94L12.72 4.22C12.8606 4.07955 13.0513 4.00066 13.25 4.00066C13.4488 4.00066 13.6394 4.07955 13.78 4.22Z" fill="#238636"/>
</svg>
