<svg width="16" height="16" viewBox="0 0 16 16" fill="none" xmlns="http://www.w3.org/2000/svg">
<path d="M8 16C5.87827 16 3.84344 15.1571 2.34315 13.6569C0.842855 12.1566 0 10.1217 0 8C0 5.87827 0.842855 3.84344 2.34315 2.34315C3.84344 0.842855 5.87827 0 8 0C10.1217 0 12.1566 0.842855 13.6569 2.34315C15.1571 3.84344 16 5.87827 16 8C16 10.1217 15.1571 12.1566 13.6569 13.6569C12.1566 15.1571 10.1217 16 8 16ZM11.78 6.28C11.9124 6.13774 11.9845 5.94969 11.9812 5.75537C11.9778 5.56105 11.8992 5.3756 11.762 5.238C11.6244 5.10076 11.4389 5.0222 11.2446 5.01884C11.0503 5.01549 10.8623 5.08759 10.72 5.22L6.75 9.19L5.28 7.72C5.13774 7.58759 4.94969 7.51549 4.75537 7.51884C4.56105 7.5222 4.3756 7.60076 4.238 7.738C4.10076 7.8756 4.0222 8.06105 4.01884 8.25537C4.01549 8.44969 4.08759 8.63774 4.22 8.78L6.22 10.78C6.36063 10.9205 6.55125 10.9993 6.75 10.9993C6.94875 10.9993 7.13937 10.9205 7.28 10.78L11.78 6.28Z" fill="#3FB950"/>
</svg>
