<svg width="14" height="13" viewBox="0 0 14 13" fill="#848D97" xmlns="http://www.w3.org/2000/svg">
<path d="M5.354 6.03999L0.581003 10.813C0.509404 10.8822 0.452307 10.965 0.413044 11.0565C0.373781 11.148 0.353138 11.2465 0.35232 11.346C0.351502 11.4456 0.370525 11.5444 0.408279 11.6365C0.446033 11.7287 0.501763 11.8124 0.572215 11.8828C0.642667 11.9532 0.726432 12.0088 0.818622 12.0465C0.910811 12.0842 1.00958 12.1031 1.10916 12.1022C1.20875 12.1013 1.30715 12.0805 1.39864 12.0412C1.49012 12.0018 1.57285 11.9447 1.642 11.873L6.945 6.56999C7.08545 6.42936 7.16434 6.23874 7.16434 6.03999C7.16434 5.84124 7.08545 5.65061 6.945 5.50999L1.642 0.205989C1.50049 0.0694354 1.311 -0.0060724 1.11435 -0.00427149C0.917705 -0.00247058 0.729632 0.0764949 0.59064 0.215617C0.451649 0.354739 0.372861 0.542887 0.371246 0.739536C0.36963 0.936185 0.445317 1.1256 0.582003 1.26699L5.354 6.03999ZM7.75 9.49999C7.55109 9.49999 7.36033 9.57901 7.21967 9.71966C7.07902 9.86031 7 10.0511 7 10.25C7 10.4489 7.07902 10.6397 7.21967 10.7803C7.36033 10.921 7.55109 11 7.75 11H13.25C13.4489 11 13.6397 10.921 13.7803 10.7803C13.921 10.6397 14 10.4489 14 10.25C14 10.0511 13.921 9.86031 13.7803 9.71966C13.6397 9.57901 13.4489 9.49999 13.25 9.49999H7.75Z" fill="#848D97CDCDCD"/>
</svg>
