<svg width="60" height="60" viewBox="0 0 60 60" fill="#848D97" xmlns="http://www.w3.org/2000/svg">
<g clip-path="url(#clip0_19_57)">
<rect width="60" height="60" fill="#848D97" fill-opacity="0.01"/>
<path d="M30 35.625C31.4918 35.625 32.9226 35.0324 33.9775 33.9775C35.0324 32.9226 35.625 31.4918 35.625 30C35.625 28.5082 35.0324 27.0774 33.9775 26.0225C32.9226 24.9676 31.4918 24.375 30 24.375C28.5082 24.375 27.0774 24.9676 26.0225 26.0225C24.9676 27.0774 24.375 28.5082 24.375 30C24.375 31.4918 24.9676 32.9226 26.0225 33.9775C27.0774 35.0324 28.5082 35.625 30 35.625Z" fill="#848D97"/>
<path d="M30 0C37.9565 0 45.5871 3.16071 51.2132 8.7868C56.8393 14.4129 60 22.0435 60 30C60 37.9565 56.8393 45.5871 51.2132 51.2132C45.5871 56.8393 37.9565 60 30 60C22.0435 60 14.4129 56.8393 8.7868 51.2132C3.16071 45.5871 0 37.9565 0 30C0 22.0435 3.16071 14.4129 8.7868 8.7868C14.4129 3.16071 22.0435 0 30 0ZM5.625 30C5.625 36.4647 8.19307 42.6645 12.7643 47.2357C17.3355 51.8069 23.5353 54.375 30 54.375C36.4647 54.375 42.6645 51.8069 47.2357 47.2357C51.8069 42.6645 54.375 36.4647 54.375 30C54.375 23.5353 51.8069 17.3355 47.2357 12.7643C42.6645 8.19307 36.4647 5.625 30 5.625C23.5353 5.625 17.3355 8.19307 12.7643 12.7643C8.19307 17.3355 5.625 23.5353 5.625 30Z" fill="#848D97"/>
</g>
<defs>
<clipPath id="clip0_19_57">
<rect width="60" height="60" fill="#848D97"/>
</clipPath>
</defs>
</svg>
