<svg width="16" height="16" viewBox="0 0 16 16" fill="none" xmlns="http://www.w3.org/2000/svg">
<path d="M7.775 3.275L9.02499 2.025C9.35002 1.69998 9.73587 1.44216 10.1605 1.26626C10.5852 1.09036 11.0403 0.999821 11.5 0.999821C11.9596 0.999821 12.4148 1.09036 12.8395 1.26626C13.2641 1.44216 13.65 1.69998 13.975 2.025C14.3 2.35002 14.5578 2.73588 14.7337 3.16054C14.9096 3.5852 15.0002 4.04035 15.0002 4.5C15.0002 4.95965 14.9096 5.4148 14.7337 5.83946C14.5578 6.26412 14.3 6.64998 13.975 6.975L11.475 9.475C11.15 9.80004 10.7641 10.0579 10.3395 10.2338C9.91481 10.4097 9.45965 10.5003 9 10.5003C8.54034 10.5003 8.08518 10.4097 7.66052 10.2338C7.23586 10.0579 6.85001 9.80004 6.525 9.475C6.39259 9.33274 6.32048 9.14469 6.32384 8.95037C6.3272 8.75605 6.40575 8.5706 6.543 8.433C6.6806 8.29576 6.86605 8.2172 7.06036 8.21384C7.25468 8.21049 7.44273 8.28259 7.585 8.415C7.77061 8.60119 7.99114 8.74892 8.23396 8.84972C8.47677 8.95052 8.73709 9.0024 9 9.0024C9.2629 9.0024 9.52322 8.95052 9.76604 8.84972C10.0088 8.74892 10.2294 8.60119 10.415 8.415L12.915 5.915C13.272 5.53605 13.4674 5.03293 13.4596 4.51234C13.4519 3.99176 13.2416 3.49467 12.8735 3.12653C12.5053 2.75838 12.0082 2.54813 11.4877 2.54038C10.9671 2.53262 10.4639 2.72798 10.085 3.085L8.835 4.335C8.69273 4.46741 8.50468 4.53951 8.31036 4.53615C8.11605 4.5328 7.9306 4.45424 7.793 4.317C7.65575 4.1794 7.5772 3.99395 7.57384 3.79963C7.57048 3.60531 7.64259 3.41726 7.775 3.275ZM3.085 12.915C3.27061 13.1012 3.49114 13.2489 3.73396 13.3497C3.97677 13.4505 4.23709 13.5024 4.5 13.5024C4.7629 13.5024 5.02322 13.4505 5.26604 13.3497C5.50885 13.2489 5.72938 13.1012 5.915 12.915L7.165 11.665C7.30726 11.5326 7.49531 11.4605 7.68963 11.4638C7.88394 11.4672 8.06939 11.5458 8.207 11.683C8.34424 11.8206 8.42279 12.0061 8.42615 12.2004C8.42951 12.3947 8.3574 12.5827 8.225 12.725L6.975 13.975C6.64997 14.3 6.26412 14.5578 5.83946 14.7337C5.41479 14.9096 4.95965 15.0002 4.5 15.0002C3.57169 15.0002 2.68141 14.6314 2.025 13.975C1.36858 13.3186 0.999817 12.4283 0.999817 11.5C0.999817 10.5717 1.36858 9.68141 2.025 9.025L4.525 6.525C4.85001 6.19996 5.23586 5.94212 5.66052 5.7662C6.08518 5.59029 6.54034 5.49975 7 5.49975C7.45965 5.49975 7.91481 5.59029 8.33947 5.7662C8.76413 5.94212 9.14999 6.19996 9.475 6.525C9.6074 6.66726 9.67951 6.85531 9.67615 7.04963C9.67279 7.24395 9.59424 7.4294 9.457 7.567C9.31939 7.70424 9.13394 7.7828 8.93963 7.78616C8.74531 7.78951 8.55726 7.71741 8.415 7.585C8.22938 7.39881 8.00885 7.25108 7.76604 7.15028C7.52322 7.04948 7.2629 6.9976 7 6.9976C6.73709 6.9976 6.47677 7.04948 6.23396 7.15028C5.99114 7.25108 5.77061 7.39881 5.585 7.585L3.085 10.085C2.8988 10.2706 2.75107 10.4911 2.65028 10.734C2.54948 10.9768 2.49759 11.2371 2.49759 11.5C2.49759 11.7629 2.54948 12.0232 2.65028 12.266C2.75107 12.5089 2.8988 12.7294 3.085 12.915Z" fill="white"/>
</svg>
