<svg width="12" height="14" viewBox="0 0 12 14" fill="none" xmlns="http://www.w3.org/2000/svg">
<path d="M7.5 2.25C7.50012 1.83753 7.61363 1.43303 7.8281 1.08071C8.04258 0.728393 8.34978 0.441808 8.71612 0.252279C9.08247 0.0627503 9.49386 -0.0224294 9.90535 0.00604926C10.3168 0.0345279 10.7126 0.175569 11.0493 0.413759C11.3861 0.651948 11.6508 0.97812 11.8147 1.35663C11.9786 1.73514 12.0353 2.15141 11.9786 2.55997C11.9219 2.96852 11.754 3.35362 11.4933 3.6732C11.2325 3.99277 10.8889 4.23451 10.5 4.372V5C10.5 5.66304 10.2366 6.29893 9.76776 6.76777C9.29892 7.23661 8.66304 7.5 8 7.5H4C3.73478 7.5 3.48043 7.60536 3.29289 7.79289C3.10535 7.98043 3 8.23478 3 8.5V9.628C3.50069 9.80493 3.9227 10.1532 4.19145 10.6112C4.4602 11.0692 4.55837 11.6075 4.46861 12.1309C4.37885 12.6542 4.10695 13.1291 3.70095 13.4713C3.29496 13.8136 2.78103 14.0014 2.25 14.0014C1.71897 14.0014 1.20503 13.8136 0.79904 13.4713C0.393049 13.1291 0.121143 12.6542 0.0313853 12.1309C-0.0583721 11.6075 0.0397989 11.0692 0.308546 10.6112C0.577292 10.1532 0.999308 9.80493 1.5 9.628V4.372C0.999587 4.19508 0.577832 3.84695 0.309274 3.38914C0.040716 2.93133 -0.0573527 2.39332 0.0324008 1.8702C0.122154 1.34708 0.393951 0.872528 0.799753 0.530421C1.20555 0.188315 1.71923 0.000679711 2.25 0.000679711C2.78076 0.000679711 3.29444 0.188315 3.70024 0.530421C4.10604 0.872528 4.37784 1.34708 4.46759 1.8702C4.55735 2.39332 4.45928 2.93133 4.19072 3.38914C3.92216 3.84695 3.50041 4.19508 3 4.372V6.208C3.3154 6.07039 3.65588 5.99957 4 6H8C8.26521 6 8.51957 5.89464 8.7071 5.70711C8.89464 5.51957 9 5.26522 9 5V4.372C8.56121 4.21687 8.18133 3.92948 7.91268 3.54944C7.64404 3.1694 7.49986 2.7154 7.5 2.25ZM1.5 2.25C1.5 2.44891 1.57902 2.63968 1.71967 2.78033C1.86032 2.92098 2.05109 3 2.25 3C2.44891 3 2.63968 2.92098 2.78033 2.78033C2.92098 2.63968 3 2.44891 3 2.25C3 2.05109 2.92098 1.86032 2.78033 1.71967C2.63968 1.57902 2.44891 1.5 2.25 1.5C2.05109 1.5 1.86032 1.57902 1.71967 1.71967C1.57902 1.86032 1.5 2.05109 1.5 2.25ZM9.75 1.5C9.55108 1.5 9.36032 1.57902 9.21967 1.71967C9.07902 1.86032 9 2.05109 9 2.25C9 2.44891 9.07902 2.63968 9.21967 2.78033C9.36032 2.92098 9.55108 3 9.75 3C9.94891 3 10.1397 2.92098 10.2803 2.78033C10.421 2.63968 10.5 2.44891 10.5 2.25C10.5 2.05109 10.421 1.86032 10.2803 1.71967C10.1397 1.57902 9.94891 1.5 9.75 1.5ZM2.25 11C2.05109 11 1.86032 11.079 1.71967 11.2197C1.57902 11.3603 1.5 11.5511 1.5 11.75C1.5 11.9489 1.57902 12.1397 1.71967 12.2803C1.86032 12.421 2.05109 12.5 2.25 12.5C2.44891 12.5 2.63968 12.421 2.78033 12.2803C2.92098 12.1397 3 11.9489 3 11.75C3 11.5511 2.92098 11.3603 2.78033 11.2197C2.63968 11.079 2.44891 11 2.25 11Z" fill="#848D97"/>
</svg>
