<svg width="16" height="16" viewBox="0 0 16 16" fill="none" xmlns="http://www.w3.org/2000/svg">
<path d="M11.294 0.984L15.016 4.706C15.2153 4.90534 15.3634 5.14986 15.4479 5.41876C15.5324 5.68766 15.5506 5.97299 15.5012 6.25047C15.4517 6.52795 15.3359 6.78937 15.1637 7.01249C14.9915 7.23561 14.7679 7.41384 14.512 7.532L13.185 8.145C12.7616 8.3409 12.388 8.63018 12.0924 8.99112C11.7967 9.35205 11.5867 9.77527 11.478 10.229L10.894 12.683C10.577 14.015 8.922 14.483 7.954 13.515L5.75 11.311L1.78 15.28C1.7104 15.3496 1.62777 15.4048 1.53683 15.4425C1.4459 15.4801 1.34843 15.4995 1.25 15.4995C1.15157 15.4995 1.0541 15.4801 0.963166 15.4425C0.872229 15.4048 0.789601 15.3496 0.72 15.28C0.650399 15.2104 0.595189 15.1278 0.557522 15.0368C0.519854 14.9459 0.500467 14.8484 0.500467 14.75C0.500467 14.6516 0.519854 14.5541 0.557522 14.4632C0.595189 14.3722 0.650399 14.2896 0.72 14.22L4.689 10.25L2.485 8.046C1.517 7.078 1.985 5.423 3.317 5.106L5.771 4.522C6.22499 4.41394 6.64849 4.20413 7.00952 3.90842C7.37054 3.61271 7.65965 3.23882 7.855 2.815L8.468 1.488C8.58616 1.23211 8.76439 1.00854 8.98751 0.836326C9.21064 0.664107 9.47205 0.54833 9.74953 0.498844C10.027 0.449357 10.3123 0.467625 10.5812 0.552094C10.8501 0.636563 11.0947 0.784733 11.294 0.984ZM6.283 9.723L9.015 12.454C9.04646 12.4855 9.08574 12.5079 9.1288 12.5192C9.17185 12.5304 9.21712 12.5299 9.25992 12.5177C9.30272 12.5056 9.34152 12.4823 9.37229 12.4502C9.40307 12.418 9.42472 12.3783 9.435 12.335L10.019 9.881C10.1801 9.20638 10.4921 8.57709 10.9315 8.04048C11.371 7.50387 11.9264 7.07392 12.556 6.783L13.884 6.17C13.9206 6.15313 13.9526 6.12767 13.9772 6.09577C14.0019 6.06387 14.0184 6.02648 14.0255 5.9868C14.0326 5.94712 14.03 5.90632 14.0179 5.86787C14.0057 5.82942 13.9845 5.79447 13.956 5.766L10.234 2.044C10.2055 2.01547 10.1706 1.99425 10.1321 1.98215C10.0937 1.97005 10.0529 1.96742 10.0132 1.97449C9.97351 1.98156 9.93613 1.99812 9.90423 2.02276C9.87233 2.0474 9.84687 2.07939 9.83 2.116L9.217 3.444C8.9262 4.0737 8.49629 4.6292 7.95966 5.06866C7.42303 5.50811 6.79368 5.82006 6.119 5.981L3.665 6.565C3.62172 6.57528 3.58196 6.59693 3.54983 6.62771C3.51771 6.65848 3.49438 6.69728 3.48225 6.74008C3.47012 6.78288 3.46964 6.82815 3.48084 6.8712C3.49205 6.91426 3.51454 6.95354 3.546 6.985L6.277 9.717L6.283 9.723Z" fill="#848D97"/>
</svg>
