<svg width="132" height="132" viewBox="0 0 132 132" fill="#848D97" xmlns="http://www.w3.org/2000/svg">
<path d="M0 14.4375C0 6.468 6.468 0 14.4375 0H117.562C125.532 0 132 6.468 132 14.4375V117.562C132 121.392 130.479 125.064 127.771 127.771C125.064 130.479 121.392 132 117.562 132H14.4375C10.6084 132 6.9362 130.479 4.22865 127.771C1.52109 125.064 0 121.392 0 117.562L0 14.4375ZM53.625 53.625V119.625H117.562C118.11 119.625 118.634 119.408 119.021 119.021C119.408 118.634 119.625 118.11 119.625 117.562V53.625H53.625ZM119.625 41.25V14.4375C119.625 13.8905 119.408 13.3659 119.021 12.9791C118.634 12.5923 118.11 12.375 117.562 12.375H53.625V41.25H119.625ZM12.375 53.625V117.562C12.375 118.701 13.299 119.625 14.4375 119.625H41.25V53.625H12.375ZM41.25 41.25V12.375H14.4375C13.8905 12.375 13.3659 12.5923 12.9791 12.9791C12.5923 13.3659 12.375 13.8905 12.375 14.4375V41.25H41.25Z" fill="#848D97CDCDCD"/>
</svg>
