<svg width="16" height="16" viewBox="0 0 16 16" fill="none" xmlns="http://www.w3.org/2000/svg">
<path d="M5 5.372V6.25C5 6.664 5.336 7 5.75 7H10.25C10.4489 7 10.6397 6.92098 10.7803 6.78033C10.921 6.63968 11 6.44891 11 6.25V5.372C10.4996 5.19508 10.0778 4.84695 9.80928 4.38914C9.54072 3.93133 9.44265 3.39332 9.5324 2.8702C9.62216 2.34708 9.89395 1.87253 10.2998 1.53042C10.7056 1.18831 11.2192 1.00068 11.75 1.00068C12.2808 1.00068 12.7944 1.18831 13.2002 1.53042C13.606 1.87253 13.8778 2.34708 13.9676 2.8702C14.0574 3.39332 13.9593 3.93133 13.6907 4.38914C13.4222 4.84695 13.0004 5.19508 12.5 5.372V6.25C12.5 6.84674 12.2629 7.41903 11.841 7.84099C11.419 8.26295 10.8467 8.5 10.25 8.5H8.75V10.628C9.25069 10.8049 9.67271 11.1532 9.94145 11.6112C10.2102 12.0692 10.3084 12.6075 10.2186 13.1309C10.1289 13.6542 9.85695 14.1291 9.45096 14.4713C9.04497 14.8136 8.53103 15.0014 8 15.0014C7.46897 15.0014 6.95504 14.8136 6.54904 14.4713C6.14305 14.1291 5.87115 13.6542 5.78139 13.1309C5.69163 12.6075 5.7898 12.0692 6.05855 11.6112C6.3273 11.1532 6.74931 10.8049 7.25 10.628V8.5H5.75C5.15326 8.5 4.58097 8.26295 4.15901 7.84099C3.73705 7.41903 3.5 6.84674 3.5 6.25V5.372C2.99959 5.19508 2.57784 4.84695 2.30928 4.38914C2.04072 3.93133 1.94265 3.39332 2.0324 2.8702C2.12216 2.34708 2.39395 1.87253 2.79976 1.53042C3.20556 1.18831 3.71924 1.00068 4.25 1.00068C4.78077 1.00068 5.29444 1.18831 5.70025 1.53042C6.10605 1.87253 6.37784 2.34708 6.4676 2.8702C6.55735 3.39332 6.45928 3.93133 6.19072 4.38914C5.92217 4.84695 5.50041 5.19508 5 5.372ZM5 3.25C5 3.05109 4.92098 2.86032 4.78033 2.71967C4.63968 2.57902 4.44891 2.5 4.25 2.5C4.05109 2.5 3.86032 2.57902 3.71967 2.71967C3.57902 2.86032 3.5 3.05109 3.5 3.25C3.5 3.44891 3.57902 3.63968 3.71967 3.78033C3.86032 3.92098 4.05109 4 4.25 4C4.44891 4 4.63968 3.92098 4.78033 3.78033C4.92098 3.63968 5 3.44891 5 3.25ZM11.75 4C11.9489 4 12.1397 3.92098 12.2803 3.78033C12.421 3.63968 12.5 3.44891 12.5 3.25C12.5 3.05109 12.421 2.86032 12.2803 2.71967C12.1397 2.57902 11.9489 2.5 11.75 2.5C11.5511 2.5 11.3603 2.57902 11.2197 2.71967C11.079 2.86032 11 3.05109 11 3.25C11 3.44891 11.079 3.63968 11.2197 3.78033C11.3603 3.92098 11.5511 4 11.75 4ZM8.75 12.75C8.75 12.5511 8.67098 12.3603 8.53033 12.2197C8.38968 12.079 8.19891 12 8 12C7.80109 12 7.61032 12.079 7.46967 12.2197C7.32902 12.3603 7.25 12.5511 7.25 12.75C7.25 12.9489 7.32902 13.1397 7.46967 13.2803C7.61032 13.421 7.80109 13.5 8 13.5C8.19891 13.5 8.38968 13.421 8.53033 13.2803C8.67098 13.1397 8.75 12.9489 8.75 12.75Z" fill="#848D97"/>
</svg>
