<svg width="15" height="15" viewBox="0 0 15 15" fill="none" xmlns="http://www.w3.org/2000/svg">
<path d="M0 6.775V1.75C0 0.784 0.784 0 1.75 0H6.775C7.239 0 7.685 0.184 8.013 0.513L14.263 6.763C14.5909 7.09115 14.7751 7.53609 14.7751 8C14.7751 8.46391 14.5909 8.90885 14.263 9.237L9.237 14.263C8.90885 14.5909 8.46391 14.7751 8 14.7751C7.53609 14.7751 7.09115 14.5909 6.763 14.263L0.513 8.013C0.184699 7.68462 0.000186131 7.23934 0 6.775ZM1.5 6.775C1.5 6.841 1.526 6.905 1.573 6.952L7.823 13.202C7.84622 13.2253 7.87381 13.2438 7.90418 13.2564C7.93456 13.269 7.96712 13.2754 8 13.2754C8.03288 13.2754 8.06544 13.269 8.09582 13.2564C8.12619 13.2438 8.15378 13.2253 8.177 13.202L13.202 8.177C13.2253 8.15378 13.2438 8.12619 13.2564 8.09582C13.269 8.06544 13.2754 8.03288 13.2754 8C13.2754 7.96712 13.269 7.93456 13.2564 7.90418C13.2438 7.87381 13.2253 7.84622 13.202 7.823L6.952 1.573C6.92874 1.5498 6.90114 1.53141 6.87077 1.51888C6.84039 1.50636 6.80785 1.49994 6.775 1.5H1.75C1.6837 1.5 1.62011 1.52634 1.57322 1.57322C1.52634 1.62011 1.5 1.6837 1.5 1.75V6.775ZM5 4C5.26522 4 5.51957 4.10536 5.70711 4.29289C5.89464 4.48043 6 4.73478 6 5C6 5.26522 5.89464 5.51957 5.70711 5.70711C5.51957 5.89464 5.26522 6 5 6C4.73478 6 4.48043 5.89464 4.29289 5.70711C4.10536 5.51957 4 5.26522 4 5C4 4.73478 4.10536 4.48043 4.29289 4.29289C4.48043 4.10536 4.73478 4 5 4Z" fill="#848D97"/>
</svg>
