<svg width="16" height="16" viewBox="0 0 16 16" fill="none" xmlns="http://www.w3.org/2000/svg">
<path d="M0.427 1.927L1.642 3.142C2.77193 1.66274 4.38221 0.623689 6.19564 0.203705C8.00908 -0.216278 9.9122 0.00908941 11.5774 0.84101C13.2426 1.67293 14.5656 3.05935 15.3188 4.7616C16.072 6.46386 16.2081 8.37543 15.7038 10.1672C15.1995 11.9591 14.0863 13.519 12.5559 14.5786C11.0254 15.6381 9.17347 16.1309 7.31881 15.9722C5.46416 15.8135 3.72286 15.0132 2.39467 13.709C1.06649 12.4049 0.234524 10.6784 0.0420004 8.827C0.0215787 8.62902 0.0806424 8.43103 0.206198 8.27659C0.331754 8.12216 0.513516 8.02392 0.7115 8.0035C0.909485 7.98308 1.10747 8.04214 1.26191 8.1677C1.41634 8.29325 1.51458 8.47502 1.535 8.673C1.69266 10.1854 2.37557 11.5947 3.4649 12.6556C4.55424 13.7165 5.98105 14.3619 7.49708 14.4796C9.01312 14.5972 10.5224 14.1796 11.7624 13.2995C13.0023 12.4193 13.8945 11.1323 14.2836 9.66228C14.6727 8.19231 14.5341 6.63245 13.8919 5.2541C13.2498 3.87575 12.1447 2.76616 10.769 2.11838C9.39329 1.4706 7.83401 1.32563 6.36246 1.70871C4.89091 2.09178 3.60023 2.97865 2.715 4.215L4.073 5.573C4.10805 5.60796 4.13194 5.65255 4.14162 5.7011C4.1513 5.74966 4.14635 5.8 4.12739 5.84573C4.10843 5.89147 4.07632 5.93055 4.03513 5.95801C3.99393 5.98547 3.94551 6.00009 3.896 6H0.25C0.183696 6 0.120108 5.97366 0.0732237 5.92678C0.0263396 5.87989 4.00326e-07 5.8163 4.00326e-07 5.75V2.104C-8.81823e-05 2.05449 0.014526 2.00607 0.0419903 1.96487C0.0694546 1.92368 0.108532 1.89157 0.154269 1.87261C0.200005 1.85365 0.250342 1.8487 0.298896 1.85838C0.34745 1.86806 0.392036 1.89195 0.427 1.927ZM7.75 4C7.94891 4 8.13968 4.07902 8.28033 4.21967C8.42098 4.36032 8.5 4.55109 8.5 4.75V7.742L10.528 8.554C10.7067 8.63191 10.8481 8.77634 10.9221 8.95669C10.9961 9.13705 10.997 9.33914 10.9246 9.52014C10.8522 9.70115 10.7121 9.84684 10.5341 9.92633C10.3561 10.0058 10.1541 10.0129 9.971 9.946L7.471 8.946C7.33205 8.89017 7.21296 8.79407 7.12903 8.67005C7.0451 8.54603 7.00017 8.39975 7 8.25V4.75C7 4.55109 7.07902 4.36032 7.21967 4.21967C7.36032 4.07902 7.55109 4 7.75 4Z" fill="#848D97"/>
</svg>
