<svg width="16" height="16" viewBox="0 0 16 16" fill="#848D97" xmlns="http://www.w3.org/2000/svg">
<path d="M2.8 2.06C2.93511 1.74509 3.1597 1.47678 3.4459 1.28835C3.73211 1.09992 4.06733 0.999654 4.41 1H11.59C12.29 1 12.923 1.417 13.2 2.06L15.94 8.455C15.98 8.548 16 8.649 16 8.75V13.25C16 13.7141 15.8156 14.1592 15.4874 14.4874C15.1592 14.8156 14.7141 15 14.25 15H1.75C1.28587 15 0.840752 14.8156 0.512563 14.4874C0.184374 14.1592 0 13.7141 0 13.25L0 8.75C0 8.649 0.02 8.548 0.06 8.455L2.8 2.06ZM4.41 2.5C4.36098 2.5 4.31305 2.51441 4.27215 2.54143C4.23126 2.56846 4.19921 2.60691 4.18 2.652L1.887 8H4.75C4.86643 8 4.98127 8.02711 5.08541 8.07918C5.18955 8.13125 5.28014 8.20685 5.35 8.3L6.625 10H9.375L10.65 8.3C10.7199 8.20685 10.8104 8.13125 10.9146 8.07918C11.0187 8.02711 11.1336 8 11.25 8H14.113L11.82 2.652C11.8008 2.60691 11.7687 2.56846 11.7278 2.54143C11.687 2.51441 11.639 2.5 11.59 2.5H4.41ZM14.5 9.5H11.625L10.35 11.2C10.2801 11.2931 10.1896 11.3688 10.0854 11.4208C9.98127 11.4729 9.86643 11.5 9.75 11.5H6.25C6.13357 11.5 6.01873 11.4729 5.91459 11.4208C5.81045 11.3688 5.71986 11.2931 5.65 11.2L4.375 9.5H1.5V13.25C1.5 13.388 1.612 13.5 1.75 13.5H14.25C14.3163 13.5 14.3799 13.4737 14.4268 13.4268C14.4737 13.3799 14.5 13.3163 14.5 13.25V9.5Z" fill="#848D97DCD"/>
</svg>
