<svg width="104" height="104" viewBox="0 0 104 104" fill="#848D97" xmlns="http://www.w3.org/2000/svg">
<path d="M69.42 76.31C61.5834 82.3928 51.7233 85.2606 41.8467 84.3297C31.9702 83.3987 22.8196 78.739 16.2576 71.299C9.69564 63.859 6.21553 54.198 6.52567 44.2825C6.83582 34.367 10.9129 24.9424 17.927 17.927C24.9424 10.9129 34.367 6.83579 44.2825 6.52564C54.198 6.2155 63.859 9.69561 71.299 16.2576C78.739 22.8196 83.3987 31.9701 84.3297 41.8467C85.2606 51.7233 82.3928 61.5834 76.31 69.42L96.07 89.18C96.7117 89.7759 97.1809 90.5338 97.4279 91.3739C97.675 92.214 97.691 93.1052 97.474 93.9536C97.2571 94.802 96.8154 95.5762 96.1954 96.1946C95.5753 96.8131 94.8 97.2528 93.951 97.4675C93.1036 97.6847 92.2133 97.6696 91.3737 97.4236C90.5341 97.1777 89.7764 96.7101 89.18 96.07L69.42 76.31ZM74.75 45.5C74.8078 41.6234 74.0942 37.7741 72.6507 34.1758C71.2072 30.5776 69.0626 27.3023 66.3416 24.5405C63.6207 21.7787 60.3777 19.5855 56.8014 18.0885C53.2251 16.5915 49.3868 15.8205 45.5098 15.8205C41.6328 15.8205 37.7945 16.5915 34.2182 18.0885C30.6418 19.5855 27.3989 21.7787 24.6779 24.5405C21.957 27.3023 19.8124 30.5776 18.3689 34.1758C16.9253 37.7741 16.2117 41.6234 16.2695 45.5C16.384 53.1795 19.5151 60.5057 24.9862 65.8959C30.4574 71.2861 37.8294 74.3075 45.5098 74.3075C53.1901 74.3075 60.5622 71.2861 66.0333 65.8959C71.5045 60.5057 74.6355 53.1795 74.75 45.5Z" fill="#848D97CDCDCD"/>
</svg>
