<svg width="14" height="15" viewBox="0 0 14 15" fill="none" xmlns="http://www.w3.org/2000/svg">
<path d="M0.500028 3.24999C0.500153 2.83753 0.613656 2.43303 0.828133 2.08071C1.04261 1.72839 1.34981 1.4418 1.71615 1.25227C2.0825 1.06274 2.49389 0.977564 2.90538 1.00604C3.31686 1.03452 3.7126 1.17556 4.04934 1.41375C4.38609 1.65194 4.65088 1.97811 4.81477 2.35662C4.97867 2.73513 5.03537 3.15141 4.97867 3.55996C4.92197 3.96851 4.75406 4.35362 4.49328 4.67319C4.23251 4.99276 3.88891 5.2345 3.50003 5.37199V10.628C4.00072 10.8049 4.42273 11.1532 4.69148 11.6112C4.96023 12.0692 5.0584 12.6075 4.96864 13.1308C4.87888 13.6542 4.60698 14.129 4.20099 14.4713C3.79499 14.8136 3.28106 15.0014 2.75003 15.0014C2.219 15.0014 1.70506 14.8136 1.29907 14.4713C0.893079 14.129 0.621173 13.6542 0.531416 13.1308C0.441658 12.6075 0.539829 12.0692 0.808576 11.6112C1.07732 11.1532 1.49934 10.8049 2.00003 10.628V5.37199C1.56124 5.21686 1.18136 4.92948 0.912715 4.54943C0.644071 4.16939 0.499887 3.7154 0.500028 3.24999ZM6.17703 3.07299L8.57303 0.676994C8.60799 0.64194 8.65258 0.618058 8.70113 0.608374C8.74969 0.598691 8.80002 0.603643 8.84576 0.622601C8.8915 0.64156 8.93057 0.673672 8.95804 0.714867C8.9855 0.756061 9.00012 0.804483 9.00003 0.853994V2.49999H10C10.6631 2.49999 11.299 2.76339 11.7678 3.23223C12.2366 3.70107 12.5 4.33695 12.5 4.99999V10.628C13.0007 10.8049 13.4227 11.1532 13.6915 11.6112C13.9602 12.0692 14.0584 12.6075 13.9686 13.1308C13.8789 13.6542 13.607 14.129 13.201 14.4713C12.795 14.8136 12.2811 15.0014 11.75 15.0014C11.219 15.0014 10.7051 14.8136 10.2991 14.4713C9.89308 14.129 9.62117 13.6542 9.53141 13.1308C9.44166 12.6075 9.53983 12.0692 9.80858 11.6112C10.0773 11.1532 10.4993 10.8049 11 10.628V4.99999C11 4.73478 10.8947 4.48042 10.7071 4.29289C10.5196 4.10535 10.2652 3.99999 10 3.99999H9.00003V5.64599C9.00012 5.6955 8.9855 5.74393 8.95804 5.78512C8.93057 5.82631 8.8915 5.85843 8.84576 5.87739C8.80002 5.89634 8.74969 5.9013 8.70113 5.89161C8.65258 5.88193 8.60799 5.85805 8.57303 5.82299L6.17703 3.42699C6.15375 3.40377 6.13528 3.37618 6.12267 3.34581C6.11007 3.31544 6.10358 3.28288 6.10358 3.24999C6.10358 3.21711 6.11007 3.18455 6.12267 3.15418C6.13528 3.1238 6.15375 3.09622 6.17703 3.07299ZM2.75003 2.49999C2.55112 2.49999 2.36035 2.57901 2.2197 2.71966C2.07905 2.86032 2.00003 3.05108 2.00003 3.24999C2.00003 3.44891 2.07905 3.63967 2.2197 3.78032C2.36035 3.92098 2.55112 3.99999 2.75003 3.99999C2.94894 3.99999 3.13971 3.92098 3.28036 3.78032C3.42101 3.63967 3.50003 3.44891 3.50003 3.24999C3.50003 3.05108 3.42101 2.86032 3.28036 2.71966C3.13971 2.57901 2.94894 2.49999 2.75003 2.49999ZM2.75003 12C2.55112 12 2.36035 12.079 2.2197 12.2197C2.07905 12.3603 2.00003 12.5511 2.00003 12.75C2.00003 12.9489 2.07905 13.1397 2.2197 13.2803C2.36035 13.421 2.55112 13.5 2.75003 13.5C2.94894 13.5 3.13971 13.421 3.28036 13.2803C3.42101 13.1397 3.50003 12.9489 3.50003 12.75C3.50003 12.5511 3.42101 12.3603 3.28036 12.2197C3.13971 12.079 2.94894 12 2.75003 12ZM11 12.75C11 12.9489 11.079 13.1397 11.2197 13.2803C11.3604 13.421 11.5511 13.5 11.75 13.5C11.9489 13.5 12.1397 13.421 12.2804 13.2803C12.421 13.1397 12.5 12.9489 12.5 12.75C12.5 12.5511 12.421 12.3603 12.2804 12.2197C12.1397 12.079 11.9489 12 11.75 12C11.5511 12 11.3604 12.079 11.2197 12.2197C11.079 12.3603 11 12.5511 11 12.75Z" fill="#CDCDCD"/>
</svg>
