<svg width="14" height="16" viewBox="0 0 14 16" fill="none" xmlns="http://www.w3.org/2000/svg">
<path d="M6.467 0.0832433C6.81367 -0.0277478 7.18633 -0.0277478 7.533 0.0832433L12.783 1.76324C13.1364 1.87623 13.4447 2.0986 13.6634 2.39823C13.8822 2.69786 14 3.05926 14 3.43024V6.95024C14 8.51624 13.68 10.1322 12.697 11.6322C11.714 13.1302 10.112 14.4452 7.665 15.4872C7.45473 15.5768 7.22854 15.623 7 15.623C6.77146 15.623 6.54527 15.5768 6.335 15.4872C3.888 14.4452 2.286 13.1302 1.303 11.6322C0.32 10.1322 5.87687e-09 8.51624 5.87687e-09 6.95024V3.43024C-3.03885e-05 3.05926 0.117837 2.69786 0.336584 2.39823C0.555332 2.0986 0.863641 1.87623 1.217 1.76324L6.467 0.0832433ZM7.077 1.51224C7.02725 1.49625 6.97375 1.49625 6.924 1.51224L1.674 3.19224C1.62352 3.20835 1.57946 3.24009 1.54818 3.28286C1.51691 3.32564 1.50004 3.37725 1.5 3.43024V6.95024C1.5 8.30824 1.775 9.61624 2.557 10.8102C3.341 12.0042 4.678 13.1502 6.923 14.1072C6.94734 14.1176 6.97353 14.123 7 14.123C7.02647 14.123 7.05266 14.1176 7.077 14.1072C9.322 13.1512 10.659 12.0032 11.443 10.8092C12.225 9.61624 12.5 8.31024 12.5 6.95024V3.43024C12.4996 3.37746 12.4826 3.32615 12.4513 3.2836C12.4201 3.24105 12.3762 3.20943 12.326 3.19324L7.076 1.51324L7.077 1.51224ZM7.75 4.70024V7.70024C7.75 7.89916 7.67098 8.08992 7.53033 8.23057C7.38968 8.37122 7.19891 8.45024 7 8.45024C6.80109 8.45024 6.61032 8.37122 6.46967 8.23057C6.32902 8.08992 6.25 7.89916 6.25 7.70024V4.70024C6.25 4.50133 6.32902 4.31057 6.46967 4.16991C6.61032 4.02926 6.80109 3.95024 7 3.95024C7.19891 3.95024 7.38968 4.02926 7.53033 4.16991C7.67098 4.31057 7.75 4.50133 7.75 4.70024ZM8 10.4502C8 10.7155 7.89464 10.9698 7.70711 11.1573C7.51957 11.3449 7.26522 11.4502 7 11.4502C6.73478 11.4502 6.48043 11.3449 6.29289 11.1573C6.10536 10.9698 6 10.7155 6 10.4502C6 10.185 6.10536 9.93067 6.29289 9.74314C6.48043 9.5556 6.73478 9.45024 7 9.45024C7.26522 9.45024 7.51957 9.5556 7.70711 9.74314C7.89464 9.93067 8 10.185 8 10.4502Z" fill="#CDCDCD"/>
</svg>
