<svg width="16" height="16" viewBox="0 0 16 16" fill="#848D97" xmlns="http://www.w3.org/2000/svg">
<g clip-path="url(#clip0_21_74)">
<path d="M8.00003 0C8.23403 0.000326434 8.46791 0.0106692 8.70103 0.031C9.44403 0.095 9.99003 0.645 10.16 1.29L10.448 2.397C10.466 2.463 10.527 2.555 10.66 2.621C10.891 2.735 11.114 2.864 11.328 3.007C11.451 3.089 11.561 3.097 11.627 3.078L12.73 2.775C13.374 2.599 14.122 2.796 14.55 3.405C14.82 3.79 15.056 4.197 15.254 4.623C15.569 5.298 15.365 6.045 14.89 6.514L14.076 7.32C14.027 7.368 13.978 7.467 13.988 7.614C14.004 7.871 14.004 8.129 13.988 8.386C13.978 8.533 14.026 8.632 14.076 8.68L14.89 9.486C15.365 9.955 15.569 10.702 15.254 11.377C15.0556 11.8026 14.8201 12.2098 14.55 12.594C14.122 13.204 13.374 13.401 12.73 13.224L11.628 12.922C11.561 12.903 11.451 12.911 11.328 12.993C11.114 13.1361 10.8909 13.265 10.66 13.379C10.527 13.445 10.466 13.537 10.449 13.603L10.159 14.709C9.99103 15.355 9.44403 15.905 8.70103 15.969C8.23459 16.01 7.76546 16.01 7.29903 15.969C6.55603 15.905 6.01003 15.355 5.84103 14.709L5.55203 13.603C5.53403 13.537 5.47303 13.445 5.34003 13.379C5.10895 13.2655 4.88578 13.1365 4.67203 12.993C4.54903 12.911 4.43903 12.903 4.37303 12.922L3.27003 13.225C2.62603 13.401 1.87803 13.204 1.45003 12.595C1.18057 12.2101 0.945017 11.8026 0.746029 11.377C0.431029 10.702 0.635029 9.955 1.10903 9.486L1.92403 8.68C1.97403 8.632 2.02203 8.533 2.01203 8.386C1.99603 8.12892 1.99603 7.87108 2.01203 7.614C2.02203 7.467 1.97403 7.368 1.92403 7.32L1.10903 6.514C0.635029 6.045 0.431029 5.298 0.746029 4.623C0.944154 4.19727 1.17975 3.78999 1.45003 3.406C1.87803 2.796 2.62603 2.599 3.27003 2.776L4.37203 3.078C4.43903 3.097 4.54903 3.089 4.67203 3.007C4.88603 2.864 5.10903 2.735 5.34003 2.621C5.47303 2.555 5.53403 2.463 5.55103 2.397L5.84103 1.291C6.00903 0.645 6.55603 0.095 7.29903 0.03C7.53003 0.01 7.76403 0 8.00003 0ZM7.42903 1.525C7.39303 1.528 7.32103 1.561 7.29203 1.671L7.00303 2.776C6.85603 3.337 6.45403 3.743 6.00503 3.965C5.83203 4.051 5.66503 4.148 5.50503 4.255C5.08803 4.533 4.53503 4.678 3.97603 4.525L2.87303 4.222C2.76403 4.192 2.69803 4.238 2.67803 4.267C2.45803 4.579 2.26603 4.911 2.10503 5.257C2.09103 5.288 2.08403 5.367 2.16403 5.447L2.97903 6.253C3.39003 6.659 3.54103 7.21 3.50903 7.709C3.49703 7.90281 3.49703 8.09719 3.50903 8.291C3.54103 8.79 3.39003 9.341 2.97903 9.747L2.16403 10.553C2.08303 10.633 2.09103 10.712 2.10503 10.743C2.26703 11.089 2.45803 11.42 2.67803 11.732C2.69803 11.762 2.76303 11.808 2.87303 11.778L3.97503 11.475C4.53503 11.322 5.08803 11.467 5.50503 11.745C5.66603 11.852 5.83303 11.949 6.00603 12.035C6.45303 12.257 6.85603 12.664 7.00303 13.224L7.29203 14.329C7.32103 14.438 7.39303 14.472 7.42903 14.475C7.80898 14.508 8.19108 14.508 8.57103 14.475C8.60703 14.472 8.67903 14.439 8.70803 14.329L8.99703 13.224C9.14403 12.663 9.54603 12.257 9.99503 12.035C10.168 11.949 10.335 11.852 10.495 11.745C10.912 11.467 11.465 11.322 12.024 11.475L13.127 11.778C13.236 11.807 13.302 11.762 13.322 11.733C13.542 11.42 13.733 11.089 13.895 10.743C13.909 10.712 13.916 10.633 13.836 10.553L13.021 9.747C12.61 9.341 12.459 8.79 12.491 8.291C12.503 8.09719 12.503 7.90281 12.491 7.709C12.459 7.21 12.61 6.659 13.021 6.253L13.836 5.447C13.917 5.367 13.909 5.288 13.895 5.257C13.7336 4.91106 13.5419 4.5801 13.322 4.268C13.302 4.238 13.237 4.192 13.127 4.222L12.025 4.525C11.465 4.678 10.912 4.533 10.495 4.255C10.3345 4.14754 10.1672 4.05067 9.99403 3.965C9.54703 3.743 9.14403 3.336 8.99703 2.776L8.70803 1.671C8.67903 1.561 8.60703 1.528 8.57103 1.525C8.19108 1.492 7.80898 1.492 7.42903 1.525ZM11 8C11 8.79565 10.684 9.55871 10.1213 10.1213C9.55874 10.6839 8.79568 11 8.00003 11C7.20438 11 6.44132 10.6839 5.87871 10.1213C5.3161 9.55871 5.00003 8.79565 5.00003 8C5.00003 7.20435 5.3161 6.44129 5.87871 5.87868C6.44132 5.31607 7.20438 5 8.00003 5C8.79568 5 9.55874 5.31607 10.1213 5.87868C10.684 6.44129 11 7.20435 11 8ZM9.50003 8C9.4999 7.60204 9.34168 7.22044 9.06019 6.93913C8.7787 6.65783 8.39699 6.49987 7.99903 6.5C7.60107 6.50013 7.21947 6.65835 6.93816 6.93984C6.65686 7.22133 6.4989 7.60304 6.49903 8.001C6.49916 8.39896 6.65738 8.78056 6.93887 9.06187C7.07825 9.20116 7.2437 9.31163 7.42577 9.38697C7.60785 9.46232 7.80298 9.50107 8.00003 9.501C8.19708 9.50093 8.39218 9.46206 8.57421 9.38659C8.75623 9.31112 8.92161 9.20054 9.0609 9.06116C9.20018 8.92178 9.31066 8.75633 9.386 8.57425C9.46135 8.39218 9.50009 8.19705 9.50003 8Z" fill="#848D97CDCDCD"/>
</g>
<defs>
<clipPath id="clip0_21_74">
<rect width="16" height="16" fill="#848D97"/>
</clipPath>
</defs>
</svg>
